<svg xmlns="http://www.w3.org/2000/svg" xmlns:xlink="http://www.w3.org/1999/xlink" width="18" height="17" viewBox="0 0 18 17"><defs><path id="e4bna" d="M396.405 107.51l-1.452 1.453-4.875-4.864v-.77l-.263-.274a6.307 6.307 0 0 1-4.123 1.53 6.336 6.336 0 1 1 6.336-6.336c0 1.57-.575 3.013-1.53 4.124l.273.263h.77zm-6.327-9.261a4.38 4.38 0 0 0-4.386-4.386 4.38 4.38 0 0 0-4.387 4.386 4.381 4.381 0 0 0 4.387 4.387 4.381 4.381 0 0 0 4.386-4.387z"/></defs><g><g transform="translate(-379 -92)"><use fill="#161918" xlink:href="#e4bna"/></g></g></svg>